<?xml version="1.0" encoding="UTF-8"?>
<!-- Generator: Adobe Illustrator 26.0.3, SVG Export Plug-In . SVG Version: 6.00 Build 0)  -->
<svg xmlns="http://www.w3.org/2000/svg" xmlns:xlink="http://www.w3.org/1999/xlink" version="1.1" id="Capa_1" x="0px" y="0px" viewBox="0 0 512 512" style="enable-background:new 0 0 512 512;" xml:space="preserve" width="512" height="512">
<g>
	<g>
		<path style="fill-rule:evenodd;clip-rule:evenodd;fill:#F1854F;" d="M52.533,232.695c-7.983-8.487-10.462-15.366-10.462-15.366    C109.71,148.55,175.688,77.004,242.923,6.292c7.988-8.402,20.925-8.387,28.877,0.036    c67.087,71.038,132.779,142.963,200.434,212.143c0,0-2.755,6.51-11.27,14.464c-42.176,39.392-84.664,79.519-126.457,119.632    c-8.443,8.104-24.671,15.526-36.089,16.46c-30.405,2.495-60.765,4.79-91.073,6.854c-11.382,0.778-27.119-5.69-35.041-14.331    C132.755,318.339,92.47,275.137,52.533,232.695z"/>
		<path style="fill-rule:evenodd;clip-rule:evenodd;fill:#A089E4;" d="M413.463,121.493l1.033-66.198    c-0.153-5.708-4.937-10.544-10.606-10.752l-81.096-0.566c-69.122-1.824-138.258-1.646-207.41,0.539    c-5.509,0.179-10.181,4.795-10.421,10.299c-4.477,102.761-5.346,205.555-2.612,308.375c0.153,5.506,4.743,10.207,10.248,10.475    c95.505,4.634,191.035,5.442,286.601,2.423c5.505-0.174,10.176-4.794,10.421-10.3    C413.161,284.375,414.444,202.946,413.463,121.493z"/>
		<path style="fill-rule:evenodd;clip-rule:evenodd;fill:#F9D555;" d="M284.062,346.408c-8.683-9.398-17.372-18.801-26.041-28.199    c-10.36,8.245-20.746,16.5-31.136,24.75c-62.912-42.8-125.414-85.309-184.815-125.631c-6.184,93.179-7.114,186.405-2.786,279.672    c0.256,5.505,4.948,10.135,10.452,10.324c136.653,4.7,273.337,5.855,410.052,3.47c5.509-0.102,10.268-4.646,10.626-10.15    c5.954-94.012,6.562-188.072,1.819-282.174"/>
		<polygon style="fill-rule:evenodd;clip-rule:evenodd;fill:#074785;" points="67.344,484.867 215.396,346.708 83.679,245.537     226.374,338.177 256.432,311.804 285.682,338.921 437.239,242.102 295.48,347.281 449.807,488.103 256.238,334.378   "/>
	</g>
	<path style="fill:#FFFFFF;" d="M138.822,75.434c-1.099-1.343-3.302-20.169-5.3-20.019c-2.004,0.156-3.747,18.825-4.682,20.058   c-1.876,2.465-15.609,4.211-15.497,6.606c0.113,2.387,13.595,3.515,15.502,5.844c1.063,1.302,3.296,20.181,5.3,20.031   c2.004-0.147,3.711-18.765,4.687-20.039c1.814-2.383,15.65-4.225,15.538-6.626C154.257,78.891,140.652,77.687,138.822,75.434z"/>
	<path style="fill:#FFFFFF;" d="M410.437,349.209c-1.094-1.345-3.302-20.171-5.295-20.021c-2.003,0.157-3.751,18.827-4.682,20.06   c-1.881,2.464-15.609,4.21-15.497,6.605c0.113,2.388,13.595,3.517,15.497,5.848c1.068,1.297,3.302,20.178,5.3,20.031   c2.003-0.148,3.716-18.769,4.692-20.043c1.809-2.382,15.645-4.222,15.533-6.625C425.878,352.666,412.272,351.462,410.437,349.209z"/>
	<g>
		<path style="fill-rule:evenodd;clip-rule:evenodd;fill:#074785;" d="M234.664,268.637c-6.22-4.708-10.386-12.503-11.086-20.143    c-0.598-6.571-0.996-14.556,2.944-20.232c3.946-5.689,10.529-9.012,17.439-7.941c4.028,0.624,7.804,1.932,11.086,4.343    c4.482,3.306,7.145,0.708,10.733-2.414c3.399-2.954,6.803-5.866,11.433-6.491c8.178-1.105,16.698,5.365,20.127,12.203    c3.792,7.575,2.985,15.959,0.915,23.909c-1.14,4.378-4.227,8.26-6.43,12.365C272.143,257.514,253.038,258.413,234.664,268.637z"/>
		<path style="fill-rule:evenodd;clip-rule:evenodd;fill:#FFA4AC;" d="M234.664,268.637c19.044-17.807,34.969-19.037,57.162-4.401    C275.613,283.755,254.209,285.409,234.664,268.637z"/>
		<g>
			<g>
				<g>
					<g>
						<path style="fill-rule:evenodd;clip-rule:evenodd;fill:#FFFFFF;" d="M235.599,131.903l8.324,52.494        c-2.855,6.58-7.184,12.662-12.954,17.732c-20.812,18.278-52.48,16.475-70.726-4.028        c-18.251-20.505-16.176-51.943,4.636-70.219c5.7-5.008,12.216-8.509,19.047-10.532L235.599,131.903z"/>
						<path style="fill-rule:evenodd;clip-rule:evenodd;fill:#074785;" d="M183.927,117.355        c-10.421,11.372-14.889,27.701-10.37,43.494c6.874,24.065,31.995,37.786,56.104,30.647c5.27-1.565,10.064-3.999,14.255-7.103        c7.442-17.145,4.871-37.676-8.316-52.49C222.346,117.014,202.035,112.001,183.927,117.355z"/>
					</g>
					<g>
						<path style="fill-rule:evenodd;clip-rule:evenodd;fill:#FFFFFF;" d="M360.094,130.942l2.287,53.109        c-3.586,6.209-8.581,11.755-14.891,16.132c-22.764,15.783-54.018,10.389-69.806-12.068        c-15.798-22.449-10.15-53.441,12.609-69.231c6.236-4.325,13.108-7.061,20.125-8.291L360.094,130.942z"/>
						<path style="fill-rule:evenodd;clip-rule:evenodd;fill:#074785;" d="M310.42,110.604        c-11.648,10.112-17.95,25.818-15.267,42.022c4.084,24.693,27.472,41.191,52.24,36.841c5.418-0.944,10.457-2.825,14.98-5.42        c9.348-16.189,9.139-36.875-2.28-53.105C348.629,114.645,329.008,107.349,310.42,110.604z"/>
					</g>
					<path style="fill-rule:evenodd;clip-rule:evenodd;fill:#074785;" d="M368.343,102.306       c-7.595-10.613-19.233-16.207-32.266-14.835c-6.537,0.693-4.948,10.743,1.559,10.061c9.527-1.009,17.285,3.496,22.734,11.098       C364.193,113.98,372.14,107.618,368.343,102.306z"/>
					<path style="fill-rule:evenodd;clip-rule:evenodd;fill:#074785;" d="M181.463,89.742c-13.048,0.331-24.211,6.823-30.38,18.38       c-3.102,5.802,6.113,10.124,9.19,4.353c4.518-8.446,12.604-12.344,21.952-12.581C188.798,99.728,187.995,89.582,181.463,89.742       z"/>
				</g>
			</g>
			<path style="fill:#7BEFE5;" d="M205.311,233.761c0,7.797-8.99,14.119-20.081,14.128c-11.101,0.015-20.102-6.294-20.112-14.094     c0-7.798,8.985-14.125,20.086-14.131C196.301,219.655,205.301,225.966,205.311,233.761z"/>
			<path style="fill:#7BEFE5;" d="M364.74,226.551c0.01,7.796-8.98,14.12-20.076,14.124c-11.101,0.015-20.097-6.293-20.107-14.091     c-0.005-7.797,8.985-14.123,20.081-14.131C355.734,212.444,364.734,218.754,364.74,226.551z"/>
			<g>
				<path style="fill:#FFFFFF;" d="M234.306,142.244c-4.273-5.903-9.455-10.738-16.386-13.273c-3.112-1.145-4.539,3.799-1.452,4.93      c5.571,2.038,9.931,6.121,13.355,10.867C231.741,147.412,236.243,144.935,234.306,142.244z"/>
				<path style="fill:#FFFFFF;" d="M209.758,125.748c-0.803-0.174-1.595-0.376-2.392-0.55c-1.37-0.301-2.775,0.327-3.194,1.74      c-0.368,1.271,0.378,2.884,1.743,3.187c0.797,0.179,1.595,0.381,2.392,0.552c1.37,0.304,2.775-0.327,3.189-1.74      C211.869,127.663,211.117,126.053,209.758,125.748z"/>
				<g>
					<path style="fill:#FFFFFF;" d="M237.92,151.213c-0.573-1.279-2.361-1.623-3.496-0.983c-1.293,0.732-1.554,2.214-0.981,3.492       c-0.005-0.035,0-0.051-0.005-0.084c0.056,1.391,1.063,2.581,2.52,2.605c1.344,0.024,2.668-1.124,2.617-2.524       C238.533,152.791,238.298,152.053,237.92,151.213z"/>
					<path style="fill:#FFFFFF;" d="M233.417,153.715c0.015,0.038,0.02,0.082,0.026,0.12c0-0.031,0-0.072-0.005-0.115       C233.141,153.055,233.366,153.544,233.417,153.715z"/>
					<path style="fill:#FFFFFF;" d="M233.443,153.835C233.463,154.211,233.478,154.028,233.443,153.835L233.443,153.835z"/>
					<polygon style="fill:#FFFFFF;" points="233.443,153.731 233.443,153.723 233.437,153.72      "/>
				</g>
			</g>
			<g>
				<path style="fill:#FFFFFF;" d="M353.357,133.67c-4.268-5.908-9.455-10.74-16.386-13.277c-3.113-1.139-4.534,3.8-1.452,4.93      c5.571,2.043,9.925,6.12,13.36,10.867C350.791,138.838,355.3,136.358,353.357,133.67z"/>
				<path style="fill:#FFFFFF;" d="M328.809,117.177c-0.797-0.175-1.589-0.381-2.392-0.555c-1.365-0.304-2.775,0.324-3.194,1.739      c-0.368,1.274,0.378,2.889,1.743,3.187c0.797,0.181,1.589,0.382,2.387,0.555c1.375,0.308,2.78-0.327,3.199-1.74      C330.92,119.087,330.174,117.475,328.809,117.177z"/>
				<g>
					<path style="fill:#FFFFFF;" d="M356.971,142.635c-0.572-1.278-2.361-1.619-3.496-0.979c-1.298,0.731-1.554,2.214-0.981,3.488       c-0.005-0.028,0-0.046-0.005-0.083c0.056,1.393,1.063,2.585,2.525,2.608c1.339,0.024,2.663-1.126,2.612-2.527       C357.584,144.216,357.354,143.474,356.971,142.635z"/>
					<path style="fill:#FFFFFF;" d="M352.473,145.139c0.01,0.037,0.02,0.081,0.026,0.118c0-0.028-0.005-0.072-0.005-0.115       C352.192,144.477,352.422,144.97,352.473,145.139z"/>
					<path style="fill:#FFFFFF;" d="M352.499,145.257C352.514,145.637,352.534,145.451,352.499,145.257L352.499,145.257z"/>
					<polygon style="fill:#FFFFFF;" points="352.493,145.153 352.493,145.144 352.493,145.142      "/>
				</g>
			</g>
		</g>
	</g>
	<path style="fill:#FFFFFF;" d="M118.306,375.48c-1.099-1.343-3.302-20.171-5.295-20.02c-2.003,0.158-3.747,18.826-4.682,20.059   c-1.881,2.465-15.609,4.212-15.502,6.604c0.117,2.389,13.601,3.515,15.507,5.848c1.063,1.3,3.296,20.18,5.295,20.031   c2.003-0.148,3.716-18.766,4.687-20.04c1.815-2.384,15.65-4.224,15.537-6.625C133.742,378.938,120.141,377.735,118.306,375.48z"/>
	<path style="fill:#FFFFFF;" d="M196.848,288.056c-6.532,0-6.532,10.13,0,10.13C203.379,298.186,203.379,288.056,196.848,288.056z"/>
	<path style="fill:#FFFFFF;" d="M122.293,198.078c-6.532,0-6.532,10.133,0,10.133C128.83,208.21,128.83,198.078,122.293,198.078z"/>
	<path style="fill:#FFFFFF;" d="M393.985,222.521c-6.532,0-6.532,10.131,0,10.131C400.517,232.652,400.517,222.521,393.985,222.521z   "/>
	<path style="fill:#FFFFFF;" d="M444.528,429.721c-6.532,0-6.532,10.133,0,10.133S451.059,429.721,444.528,429.721z"/>
	<path style="fill:#FFFFFF;" d="M223.2,424.657c-6.532,0-6.532,10.13,0,10.13C229.732,434.787,229.732,424.657,223.2,424.657z"/>
	<path style="fill:#FFFFFF;" d="M127.195,308.681c-6.532,0-6.532,10.13,0,10.13S133.726,308.681,127.195,308.681z"/>
	<g>
		<path style="fill-rule:evenodd;clip-rule:evenodd;fill:#FFFFFF;" d="M63.716,320.982c0.721-8.865-13.028-9.984-13.749-1.119    C49.241,328.723,62.99,329.844,63.716,320.982z"/>
		<path style="fill-rule:evenodd;clip-rule:evenodd;fill:#FFFFFF;" d="M63.399,426.248c0.281-26.542-0.01-53.085,0.271-79.632    c0.087-8.681-13.386-8.834-13.473-0.147c-0.276,26.543,0.01,53.093-0.266,79.63C49.844,434.789,63.312,434.938,63.399,426.248z"/>
		<path style="fill-rule:evenodd;clip-rule:evenodd;fill:#FFFFFF;" d="M63.552,452.961c0.705-8.657-12.721-9.756-13.427-1.096    C49.42,460.521,62.847,461.617,63.552,452.961z"/>
	</g>
	<g>
		<path style="fill-rule:evenodd;clip-rule:evenodd;fill:#FFFFFF;" d="M253.478,480.431c-8.873-0.649-9.874,13.11-1.007,13.759    C261.338,494.842,262.345,481.085,253.478,480.431z"/>
		<path style="fill-rule:evenodd;clip-rule:evenodd;fill:#FFFFFF;" d="M358.744,479.874c-26.547-0.056-53.088,0.452-79.635,0.388    c-8.683-0.015-8.719,13.457-0.036,13.478c26.547,0.056,53.093-0.45,79.635-0.399C367.397,493.362,367.433,479.889,358.744,479.874    z"/>
		<path style="fill-rule:evenodd;clip-rule:evenodd;fill:#FFFFFF;" d="M385.454,479.501c-8.663-0.634-9.65,12.803-0.986,13.434    C393.131,493.571,394.118,480.135,385.454,479.501z"/>
	</g>
	<g>
		<path style="fill-rule:evenodd;clip-rule:evenodd;fill:#7BEFE5;" d="M274.97,56.148c-6.823-0.5-7.595,10.078-0.777,10.58    C281.011,67.225,281.788,56.651,274.97,56.148z"/>
		<path style="fill-rule:evenodd;clip-rule:evenodd;fill:#7BEFE5;" d="M355.897,55.719c-20.408-0.045-40.811,0.348-61.22,0.302    c-6.675-0.014-6.711,10.343-0.031,10.359c20.408,0.042,40.817-0.348,61.225-0.304C362.552,66.091,362.578,55.729,355.897,55.719z"/>
		<path style="fill-rule:evenodd;clip-rule:evenodd;fill:#7BEFE5;" d="M376.433,55.43c-6.66-0.487-7.416,9.845-0.756,10.331    C382.337,66.249,383.093,55.92,376.433,55.43z"/>
	</g>
</g>















</svg>
